<?xml version="1.0" ?><svg id="katman_1" style="enable-background:new 0 0 512 512;" version="1.1" viewBox="0 0 512 512" xml:space="preserve" xmlns="http://www.w3.org/2000/svg" xmlns:xlink="http://www.w3.org/1999/xlink"><style type="text/css">
	.st0{fill:#F1C410;}
	.st1{fill:#F59C15;}
	.st2{fill:#FFFFFF;}
</style><g><g><circle class="st0" cx="256" cy="256" r="250"/></g><path class="st1" d="M505.9,263.4c-0.3-0.4-0.6-0.8-0.9-1.1c-50.8-50.8-101.6-101.6-152.4-152.4c-0.5-0.5-0.9-0.9-1.4-1.4   c-3.1-3-6.9-3-10,0c-1.7,1.7-3.4,3.4-5.1,5.1c-3.8,3.8-7.6,7.6-11.4,11.4c-2.2,2.2-2.9,4.8-1.7,7.7c0.5,1.2,1.5,2.2,2.5,3.2   c19.2,19.2,38.3,38.4,57.5,57.5c0.6,0.6,1.1,1.2,2,2.2c-1.3,0-2.1,0-2.8,0c-5.9,0-11.8-0.2-17.8,0.1c-2.2,0.1-3.5-0.6-4.9-2.1   c-14.9-15-29.8-29.9-44.8-44.8c-1.9-1.9-3.9-3.8-6-5.5c-18.3-14.9-39.2-21.1-62.6-18.2c-13.8,1.7-26.3,7-37.5,15.3   c-0.8,0.6-1.5,1.1-2.7,2c-0.6-0.8-1-1.6-1.6-2.2c-10.2-10.3-20.5-20.5-30.7-30.7c-0.7-0.7-1.4-1.4-2.1-1.9   c-4.1-2.9-9.4-0.8-10.5,4.1c-0.6,2.7,0.4,4.8,2.3,6.7c10.4,10.4,20.8,20.8,31.2,31.2c0.6,0.6,1.2,1.2,1.9,1.9   c-8,8.9-13.9,18.7-17.9,29.8c-4,11.1-5.5,22.5-5.6,34.4c-0.8-0.5-1.2-1.2-1.8-1.8c-5.2-5.2-10.4-10.4-15.6-15.6   c-1.9-1.9-4-2.7-6.6-2.7c-7.2,0.1-14.4,0-21.6,0c-0.6,0-1.1,0-1.7,0c-2.7,0.4-4.8,1.7-5.8,4.4c-1,2.6-0.4,5,1.4,7.1   c0.5,0.6,1.1,1.1,1.7,1.7c25.3,25.3,50.7,50.7,76,76c1.3,1.3,2.4,2.8,3.2,4.4c3.1,5.9,5.6,12,7.2,18.5c0.5,2.1,0.9,4.2,1.4,6.3   c-0.2,0.1-0.4,0.1-0.5,0.2c-0.3-0.3-0.7-0.6-1-1c-3.4-3.4-6.8-6.8-10.2-10.2c-7-7-13.9-13.9-20.9-20.9c-3.3-3.3-7.2-3.3-10.5,0   c-0.9,0.8-1.7,1.7-2.5,2.5c-4.7,4.7-9.4,9.4-14.1,14.1c-2.6,2.7-3.1,6.2-1.1,8.9c0.5,0.7,1.2,1.3,1.8,1.9   c17.3,17.3,34.6,34.6,51.9,51.9c2.3,2.3,4.6,4.7,7,6.9c0.9,0.8,1.2,1.7,1.2,3c-0.1,2.6,0.1,5.1-0.1,7.7c-0.1,1.7,0.5,2.9,1.7,3.9   c1.7,1.6,3.3,3.3,5.5,5.4c-2.7,0-4.8,0-7,0c0,0.7-0.1,1-0.1,1.4c0.3,4.7,2.3,8.6,5.6,11.8c32.1,32.1,64.3,64.2,96.4,96.4   c0.3,0.3,0.7,0.6,1,0.8C422.1,473.2,502.5,378,505.9,263.4z"/><g><path class="st2" d="M155.8,202c0-3.7-3-6.7-6.7-6.7h-24c-3.7,0-6.7,3-6.7,6.7s3,6.7,6.7,6.7h24    C152.9,208.6,155.8,205.7,155.8,202z"/><path class="st2" d="M386.8,195.3h-24c-3.7,0-6.7,3-6.7,6.7s3,6.7,6.7,6.7h24c3.7,0,6.7-3,6.7-6.7S390.5,195.3,386.8,195.3z"/><path class="st2" d="M167.2,281.4l-17.4,17.4c-2.6,2.6-2.6,6.8,0,9.4c1.3,1.3,3,2,4.7,2c1.7,0,3.4-0.6,4.7-2l17.4-17.4    c2.6-2.6,2.6-6.8,0-9.4C174,278.8,169.8,278.8,167.2,281.4z"/><path class="st2" d="M328.4,136.3c1.7,0,3.4-0.7,4.7-2l17-17c2.6-2.6,2.6-6.8,0-9.4c-2.6-2.6-6.8-2.6-9.4,0l-17,17    c-2.6,2.6-2.6,6.8,0,9.4C325,135.6,326.7,136.3,328.4,136.3z"/><path class="st2" d="M178.9,134.3c1.3,1.3,3,2,4.7,2c1.7,0,3.4-0.7,4.7-2c2.6-2.6,2.6-6.8,0-9.4L171.4,108c-2.6-2.6-6.8-2.6-9.4,0    c-2.6,2.6-2.6,6.8,0,9.4L178.9,134.3z"/><path class="st2" d="M344.9,281.4c-2.6-2.6-6.8-2.6-9.4,0c-2.6,2.6-2.6,6.8,0,9.4l17.4,17.4c1.3,1.3,3,2,4.7,2    c1.7,0,3.4-0.7,4.7-2c2.6-2.6,2.6-6.8,0-9.4L344.9,281.4z"/><path class="st2" d="M256,124.1c-46,0-83.5,39.2-83.5,87.4c0,22.4,8,46.5,22,66.1c10.7,15.1,16.4,31.9,16.4,48.5v37.4v4.4v13.3    h13.3h63.5H301v-12.1c0-0.4,0.1-0.8,0.1-1.2v-41.9c0-16.7,5.7-33.4,16.4-48.5c14-19.6,22-43.7,22-66.1    C339.5,163.3,302,124.1,256,124.1z M224.2,363.5v-4.3H256c3.7,0,6.7-3,6.7-6.7s-3-6.7-6.7-6.7h-31.8v-8.7h63.5l0,26.3H224.2z     M246.7,243.7l-8.9-19h36.5l-8.9,19c-0.4,0.7-0.6,1.6-0.6,2.4l-5.2,77.8h-7.1l-5.2-77.8C247.2,245.3,247,244.5,246.7,243.7z     M306.7,269.8c-11.9,16.7-18.4,35.3-18.9,54.1h-14.9l5-75.7l12.8-27.4c1-2.1,0.8-4.5-0.4-6.4c-1.2-1.9-3.3-3.1-5.6-3.1h-57.4    c-2.3,0-4.4,1.2-5.6,3.1c-1.2,1.9-1.4,4.3-0.4,6.4l12.8,27.4l5,75.7h-14.9c-0.5-18.7-7-37.4-18.9-54.1    c-12.2-17.2-19.5-39-19.5-58.4c0-40.8,31.5-74,70.2-74c38.7,0,70.2,33.2,70.2,74C326.2,230.8,318.9,252.7,306.7,269.8z"/><path class="st2" d="M228.7,406h54.6c9.8,0,17.7-7.9,17.7-17.7h-90.1C210.9,398.1,218.9,406,228.7,406z"/></g></g></svg>