<?xml version="1.0" standalone="no"?>
<!DOCTYPE svg PUBLIC "-//W3C//DTD SVG 20010904//EN"
 "http://www.w3.org/TR/2001/REC-SVG-20010904/DTD/svg10.dtd">
<svg version="1.0" xmlns="http://www.w3.org/2000/svg"
 width="1280.000000pt" height="1280.000000pt" viewBox="0 0 1280.000000 1280.000000"
 preserveAspectRatio="xMidYMid meet">
<metadata>
Created by potrace 1.15, written by Peter Selinger 2001-2017
</metadata>
<g transform="translate(0.000000,1280.000000) scale(0.100000,-0.100000)"
fill="#ffffff" stroke="none">
<path d="M2479 12009 c-87 -13 -312 -66 -397 -95 -284 -94 -596 -324 -786
-578 -177 -236 -246 -384 -311 -666 -19 -80 -39 -189 -44 -242 -15 -133 -15
-7896 -1 -8022 24 -209 99 -472 179 -630 105 -206 294 -437 466 -571 230 -179
389 -258 654 -325 258 -65 -91 -60 4296 -60 4372 0 4031 -5 4290 59 230 57
372 121 569 259 234 164 428 390 556 647 92 185 158 422 180 647 7 69 10 1412
7 4058 -3 3717 -4 3960 -20 4040 -73 350 -141 521 -304 752 -104 149 -224 273
-364 377 -217 163 -371 237 -609 297 -279 69 80 64 -4320 63 -2192 -1 -4010
-5 -4041 -10z m7354 -1429 c260 -30 537 -213 677 -448 57 -97 107 -225 120
-307 7 -49 10 -1075 8 -3425 l-3 -3355 -29 -75 c-102 -269 -258 -450 -481
-560 -123 -60 -177 -78 -274 -91 -50 -6 -1237 -9 -3401 -7 l-3325 3 -104 37
c-304 109 -510 316 -618 623 l-28 80 0 3390 0 3390 23 70 c57 169 135 295 254
411 91 89 164 140 272 189 101 45 166 65 244 75 103 12 6560 12 6665 0z"/>
<path d="M8699 9790 c-313 -36 -593 -167 -803 -376 -144 -143 -231 -270 -343
-502 -36 -75 -67 -139 -69 -141 -2 -2 -38 10 -81 27 -112 45 -165 56 -238 49
-73 -7 -119 -27 -194 -87 -46 -36 -60 -57 -102 -145 -69 -148 -147 -283 -171
-296 -16 -8 -24 -8 -34 3 -17 17 -44 114 -73 258 -16 75 -34 131 -68 198 -72
146 -143 192 -292 192 -87 0 -225 -22 -291 -45 -86 -30 -234 -110 -253 -136
-29 -40 -41 -184 -28 -350 13 -163 14 -249 3 -249 -20 0 -105 77 -222 201
-152 162 -191 184 -305 177 -116 -8 -274 -93 -462 -250 -117 -99 -138 -148
-103 -248 5 -14 11 -42 15 -62 3 -23 44 -95 106 -190 102 -154 154 -246 146
-255 -6 -6 -110 21 -227 59 -140 45 -210 57 -263 47 -58 -10 -112 -33 -151
-63 -17 -12 -52 -31 -78 -40 -25 -10 -58 -30 -72 -45 -50 -52 -166 -341 -166
-413 0 -55 34 -126 96 -203 41 -50 65 -68 144 -108 163 -82 298 -158 315 -177
16 -17 15 -19 -4 -30 -12 -6 -90 -27 -174 -46 -178 -40 -260 -76 -315 -139
-21 -24 -51 -47 -66 -51 -15 -4 -45 -23 -66 -43 -47 -45 -56 -83 -44 -201 l9
-88 -78 -26 c-160 -53 -308 -136 -447 -254 -122 -102 -311 -284 -356 -343
-224 -292 -306 -652 -234 -1031 38 -199 120 -392 192 -454 42 -35 105 -63 141
-64 16 0 51 -7 78 -16 35 -12 71 -15 122 -12 69 5 87 11 202 63 28 13 67 28
87 34 58 19 108 61 216 183 55 62 123 138 150 168 l49 55 33 -32 33 -32 -130
-163 c-72 -90 -135 -172 -141 -183 -6 -12 -49 -70 -96 -130 -100 -128 -121
-178 -113 -269 6 -78 35 -143 87 -200 63 -69 117 -86 387 -125 101 -15 281
-13 394 4 116 17 374 101 516 167 211 98 407 267 532 460 l62 96 61 -19 c33
-11 73 -19 88 -19 56 0 165 31 190 54 14 13 42 29 62 35 69 22 111 75 198 246
45 88 87 166 95 174 12 13 16 10 26 -15 17 -44 66 -240 85 -341 19 -102 38
-143 89 -196 47 -49 93 -67 169 -67 167 0 379 45 491 104 17 9 35 16 41 16 22
0 113 91 124 124 14 44 14 56 5 304 -5 135 -5 212 2 212 11 0 189 -182 253
-259 66 -79 120 -111 190 -111 65 0 136 19 177 47 15 11 46 25 68 31 95 28
304 188 352 270 44 75 40 142 -17 262 -25 52 -71 135 -103 185 -75 115 -131
215 -124 221 7 7 129 -27 280 -77 65 -21 136 -39 160 -39 71 1 158 27 184 55
13 14 32 25 42 25 28 0 110 60 136 99 35 52 111 239 125 304 9 47 9 67 -4 117
-18 70 -80 181 -123 223 -16 15 -93 61 -171 102 -162 85 -242 135 -242 151 0
6 6 17 13 23 13 10 171 50 260 65 111 20 266 87 327 142 67 61 79 131 54 307
l-6 37 46 0 c155 0 569 145 763 266 384 241 606 619 638 1084 21 301 -114 759
-270 915 -79 80 -130 100 -251 100 -95 0 -104 -2 -175 -37 -84 -42 -119 -76
-387 -375 -95 -107 -171 -183 -181 -183 -19 0 -131 76 -131 89 0 4 94 126 209
271 115 144 222 285 237 313 20 38 28 69 32 123 5 83 -10 140 -67 248 -76 146
-165 210 -341 246 -110 23 -330 33 -441 20z m-2152 -2207 c51 -9 93 -19 92
-22 0 -3 -59 -49 -130 -101 -72 -52 -188 -138 -259 -190 -71 -52 -211 -156
-312 -230 -200 -146 -368 -271 -581 -428 -75 -56 -139 -102 -141 -102 -5 0 13
109 30 175 78 310 264 579 525 755 100 69 208 118 294 134 44 8 89 17 100 19
55 12 296 6 382 -10z m1018 -1505 c-10 -74 -60 -222 -95 -282 -16 -28 -58 -88
-95 -133 -217 -271 -546 -439 -899 -459 -200 -11 -215 -29 270 327 508 373
818 598 822 599 2 0 1 -24 -3 -52z"/>
</g>
</svg>
