<?xml version="1.0" ?><svg id="Layer_1" style="enable-background:new 0 0 64 64;" version="1.1" viewBox="0 0 64 64" xml:space="preserve" xmlns="http://www.w3.org/2000/svg" xmlns:xlink="http://www.w3.org/1999/xlink"><g><rect height="2.03239" width="12.2013" x="12.46701" y="36.4074"/><rect height="2.03239" width="9.40329" x="12.46701" y="43.03054"/><rect height="2.03239" width="9.40378" x="25.81996" y="43.03054"/><rect height="2.03239" width="29.76243" x="12.46701" y="49.65368"/><path d="M64,11.03079H36.29849l-6.18866-7.75358H11.32038v10.32458H0v47.121h54.71196V48.37599H64V18.06285H23.85009   l-1.61578-2.03239H64V11.03079z M52.67956,58.6904H2.03239V29.39922h50.64717   C52.67956,39.51878,52.67956,48.10859,52.67956,58.6904z M25.49632,23.38776h27.18324v3.97907H2.03239V15.63418   c3.5557,0,11.54406,0,17.28544,0C19.40063,15.73808,25.57945,23.49207,25.49632,23.38776z"/></g></svg>