<?xml version="1.0" encoding="iso-8859-1"?>
<!-- Generator: Adobe Illustrator 19.1.0, SVG Export Plug-In . SVG Version: 6.00 Build 0)  -->
<svg version="1.1" id="Capa_1" xmlns="http://www.w3.org/2000/svg" xmlns:xlink="http://www.w3.org/1999/xlink" x="0px" y="0px"
	 viewBox="0 0 63.026 63.026" style="enable-background:new 0 0 63.026 63.026;" xml:space="preserve">
<g>
	<g id="group-43svg">
		<path id="path-1_37_" style="fill:#E56A77;" d="M9.013,47.026v16h51v-16h-9v8h-33v-8H9.013z"/>
		<path id="path-2_34_" d="M55.513,62.026h-51c-0.829,0-1.5-0.672-1.5-1.5v-16c0-0.828,0.671-1.5,1.5-1.5h9
			c0.829,0,1.5,0.672,1.5,1.5v6.5h30v-6.5c0-0.828,0.671-1.5,1.5-1.5h9c0.829,0,1.5,0.672,1.5,1.5v16
			C57.013,61.354,56.342,62.026,55.513,62.026z M6.013,59.026h48v-13h-6v6.5c0,0.828-0.671,1.5-1.5,1.5h-33
			c-0.829,0-1.5-0.672-1.5-1.5v-6.5h-6V59.026z"/>
		<path id="path-3_16_" style="fill:#EDC951;" d="M35.455,46.552L24.039,29.543c-1.282-1.906,0.083-4.517,2.38-4.517h3.594V7.234
			c0-1.881,1.8-3.555,3.675-3.719c2.14-0.187,4.325,1.493,4.325,3.592v17.919h6.478c2.297,0,3.662,2.611,2.38,4.517L35.455,46.552z"
			/>
		<path id="path-4_11_" d="M30.455,46.052c-0.504,0-0.973-0.253-1.251-0.672L17.788,28.12c-0.925-1.373-0.995-3.189-0.175-4.728
			c0.788-1.481,2.211-2.366,3.806-2.366h2.594V5.235c0-2.587,2.31-4.975,5.044-5.214c3.088-0.279,5.956,2.225,5.956,5.086v15.919
			h4.478c1.595,0,3.018,0.885,3.806,2.366c0.819,1.539,0.75,3.355-0.182,4.738L31.706,45.38
			C31.428,45.799,30.958,46.052,30.455,46.052z M21.419,24.026c-0.673,0-1.034,0.543-1.158,0.776
			c-0.233,0.437-0.349,1.101,0.022,1.653l10.172,15.379L40.62,26.465c0.378-0.562,0.262-1.226,0.029-1.663
			c-0.124-0.233-0.486-0.776-1.158-0.776h-5.978c-0.829,0-1.5-0.672-1.5-1.5V5.107c0-1.139-1.341-2.214-2.694-2.098
			c-1.164,0.102-2.306,1.204-2.306,2.226v17.291c0,0.828-0.671,1.5-1.5,1.5H21.419z"/>
	</g>
</g>
<g>
</g>
<g>
</g>
<g>
</g>
<g>
</g>
<g>
</g>
<g>
</g>
<g>
</g>
<g>
</g>
<g>
</g>
<g>
</g>
<g>
</g>
<g>
</g>
<g>
</g>
<g>
</g>
<g>
</g>
</svg>
