<?xml version="1.0" standalone="no"?>
<!DOCTYPE svg PUBLIC "-//W3C//DTD SVG 20010904//EN"
 "http://www.w3.org/TR/2001/REC-SVG-20010904/DTD/svg10.dtd">
<svg version="1.0" xmlns="http://www.w3.org/2000/svg"
 width="1161.000000pt" height="1280.000000pt" viewBox="0 0 1161.000000 1280.000000"
 preserveAspectRatio="xMidYMid meet">
<metadata>
Created by potrace 1.15, written by Peter Selinger 2001-2017
</metadata>
<g transform="translate(0.000000,1280.000000) scale(0.100000,-0.100000)"
fill="#ffc107" stroke="none">
<path d="M2860 12789 c-14 -6 -36 -20 -48 -32 -55 -51 -52 78 -52 -1991 l0
-1916 -1173 -2 -1174 -3 -36 -28 c-47 -36 -67 -75 -67 -131 0 -36 7 -54 37
-93 20 -26 1035 -1221 2255 -2655 1220 -1435 2218 -2610 2218 -2613 0 -3 -991
-5 -2202 -5 -2181 0 -2203 0 -2236 -20 -18 -11 -41 -34 -52 -52 -20 -32 -20
-53 -20 -994 l0 -961 23 -33 c12 -19 36 -42 54 -53 31 -18 172 -18 5268 -18
5076 -1 5236 0 5268 18 18 10 42 38 55 63 l22 44 0 941 0 941 -22 44 c-14 27
-36 50 -58 62 -33 17 -124 18 -2198 18 -1358 0 -2162 4 -2160 9 3 9 600 722
3482 4161 716 854 929 1114 937 1145 21 78 -28 163 -107 183 -24 7 -474 14
-1179 19 l-1140 8 -5 1930 c-5 1823 -6 1932 -23 1958 -9 15 -35 36 -57 47 -39
20 -52 20 -2812 19 -1818 0 -2782 -4 -2798 -10z"/>
</g>
</svg>
