<?xml version="1.0" ?><svg enable-background="new 0 0 40 40" id="Слой_1" version="1.1" viewBox="0 0 40 40" xml:space="preserve" xmlns="http://www.w3.org/2000/svg" xmlns:xlink="http://www.w3.org/1999/xlink"><g><path d="M29.2,40.2h-25c-2.4,0-4.3-1.9-4.3-4.3v-9.3c0-0.6,0.4-1,1-1s1,0.4,1,1v9.3c0,1.3,1,2.3,2.3,2.3h25c0.6,0,1,0.4,1,1   S29.8,40.2,29.2,40.2z"/></g><g><path d="M35.6,40.2c-0.6,0-1-0.4-1-1s0.4-1,1-1c1.3,0,2.3-1,2.3-2.3v-9.3c0-0.6,0.4-1,1-1s1,0.4,1,1v9.3   C39.9,38.3,38,40.2,35.6,40.2z"/></g><g><path d="M26.4,32.2h-13c-0.6,0-1-0.4-1-1s0.4-1,1-1h13c0.6,0,1,0.4,1,1S26.9,32.2,26.4,32.2z"/></g><g><path d="M28.1,17.1l-6.2,9c-0.5,0.7-1.2,1.1-2,1.1s-1.5-0.4-2-1.1l-6.2-9c-0.3-0.4-0.2-1.1,0.3-1.4c0.5-0.3,1.1-0.2,1.4,0.3   l5.5,8.1V1c0-0.6,0.5-1,1-1s1,0.4,1,1v23.1l5.5-8.1c0.3-0.5,0.9-0.6,1.4-0.3S28.4,16.7,28.1,17.1z"/></g></svg>