<?xml version='1.0' encoding='iso-8859-1'?>
<svg version="1.1" xmlns="http://www.w3.org/2000/svg" viewBox="0 0 286.685 286.685" xmlns:xlink="http://www.w3.org/1999/xlink" enable-background="new 0 0 286.685 286.685">
  <g>
    <g>
      <path d="m274.3,32.627l-13.921-13.921c-8.701-8.701-26.102-8.701-34.802,0l-6.96,6.96-19.142-19.141c-8.701-8.701-26.102-8.701-34.802,1.77636e-15l-13.921,13.921c-10.441,8.701-10.441,24.362 0,34.802l19.141,19.141-43.503,43.503c-10.441-5.22-22.621-6.96-33.062-6.96-29.582,0-53.944,13.921-71.345,36.543-22.621,29.582-22.621,69.605-3.48,99.187 17.401,24.362 45.243,40.023 74.825,40.023 24.362,0 45.243-8.701 62.644-26.102 24.362-24.362 31.322-60.904 19.141-93.966l99.187-99.187c10.441-8.701 10.441-24.362 0-34.803zm-10.441,22.622l-104.407,104.407c-3.48,3.48-3.48,6.96-1.74,10.441 12.181,26.102 6.96,59.164-13.921,80.046-13.921,13.921-31.322,20.882-50.463,20.882-24.362,0-45.243-12.181-59.164-33.062-15.661-24.362-15.661-57.424 1.74-80.046 13.921-19.141 34.802-29.582 57.424-29.582 10.441,0 20.882,1.74 31.322,10.441 3.48,1.74 8.701,1.74 10.441-1.74l53.944-53.944c0-1.74 1.74-3.48 1.74-6.96 0-3.48 0-5.22-1.74-6.96l-26.102-26.102c-3.48-1.74-3.48-6.96 0-10.441l13.921-13.921c1.74-3.48 6.96-3.48 10.441,0l26.102,26.102c3.48,3.48 8.701,3.48 12.181,0l13.921-13.921c1.74-3.48 6.96-3.48 10.441,0l13.921,13.921c3.478,1.739 3.478,6.959-0.002,10.439z"/>
      <path d="m68.966,173.577c-6.96,6.96-10.441,15.661-10.441,24.362s3.48,17.401 10.441,24.362c6.96,6.96 15.661,10.441 24.362,10.441s17.401-3.48 24.362-10.441 10.441-15.661 10.441-24.362-3.48-17.401-10.441-24.362c-12.182-13.921-34.803-13.921-48.724,0zm36.542,36.543c-6.96,6.96-17.401,6.96-24.362,0-3.48-3.48-5.22-6.96-5.22-12.181 0-5.22 1.74-8.701 5.22-12.181 3.48-3.48 6.96-5.22 12.181-5.22 5.22,0 8.701,1.74 12.181,5.22 3.48,3.48 5.22,6.96 5.22,12.181 0.001,5.22-1.74,8.7-5.22,12.181z"/>
    </g>
  </g>
</svg>
