<?xml version="1.0" ?><!DOCTYPE svg  PUBLIC '-//W3C//DTD SVG 1.1//EN'  'http://www.w3.org/Graphics/SVG/1.1/DTD/svg11.dtd'><svg xmlns="http://www.w3.org/2000/svg" xmlns:xlink="http://www.w3.org/1999/xlink" xmlns:serif="http://www.serif.com/" width="100%" height="100%" viewBox="0 0 64 64" version="1.1" xml:space="preserve" style="fill-rule:evenodd;clip-rule:evenodd;stroke-linejoin:round;stroke-miterlimit:2;"><g><g transform="matrix(0.296287,-0.296287,0.268069,0.268069,2.06279,21.914)"><path d="M33.5,1.75C25.635,1.75 19.25,8.807 19.25,17.5C19.25,26.193 25.635,33.25 33.5,33.25C41.365,33.25 47.75,26.193 47.75,17.5C47.75,8.807 41.365,1.75 33.5,1.75ZM33.5,12.25C36.122,12.25 38.25,14.602 38.25,17.5C38.25,20.398 36.122,22.75 33.5,22.75C30.878,22.75 28.75,20.398 28.75,17.5C28.75,14.602 30.878,12.25 33.5,12.25Z"/></g><g transform="matrix(0.995156,0,0,0.995157,0.00445338,0.00445319)"><path d="M29.297,39.197L52.817,62.716C53.209,63.108 53.746,63.32 54.3,63.301L60.157,63.1C61.101,63.068 61.894,62.379 62.058,61.449L63.272,54.579C63.372,54.011 63.222,53.428 62.861,52.978C62.5,52.529 61.963,52.257 61.387,52.233L57.385,52.064C57.385,52.064 57.365,48.283 57.365,48.283C57.362,47.749 57.146,47.239 56.765,46.865C56.383,46.492 55.869,46.286 55.335,46.294L51.801,46.347C51.801,46.347 51.817,42.754 51.817,42.754C51.819,42.217 51.605,41.701 51.222,41.323C50.84,40.945 50.321,40.737 49.784,40.746L46.24,40.804C46.24,40.804 46.221,37.139 46.221,37.139C46.218,36.612 46.007,36.108 45.635,35.735L39.197,29.297C42.555,21.921 41.203,12.918 35.139,6.854C27.333,-0.951 14.66,-0.951 6.854,6.854L6.854,6.854C-0.951,14.66 -0.951,27.333 6.854,35.139C12.918,41.203 21.921,42.555 29.297,39.197ZM37.102,32.859C36.514,33.655 35.86,34.417 35.139,35.139C34.417,35.86 33.655,36.514 32.859,37.102L55.031,59.274C55.031,59.274 58.401,59.158 58.401,59.158C58.401,59.158 58.935,56.133 58.935,56.133L55.311,55.98C54.245,55.935 53.401,55.06 53.396,53.992C53.396,53.992 53.376,50.324 53.376,50.324L49.822,50.377C49.284,50.385 48.767,50.177 48.385,49.799C48.003,49.421 47.789,48.906 47.792,48.368C47.792,48.368 47.808,44.779 47.808,44.779L44.284,44.837C43.75,44.845 43.234,44.64 42.852,44.266C42.47,43.893 42.254,43.382 42.251,42.847C42.251,42.847 42.225,37.982 42.225,37.982L37.102,32.859ZM9.683,9.683C15.927,3.439 26.066,3.439 32.31,9.683C38.554,15.927 38.554,26.066 32.31,32.31C26.066,38.554 15.927,38.554 9.683,32.31C3.439,26.066 3.439,15.927 9.683,9.683Z"/></g></g></svg>