<?xml version="1.0" encoding="UTF-8"?>
<!DOCTYPE svg PUBLIC "-//W3C//DTD SVG 1.1//EN" "http://www.w3.org/Graphics/SVG/1.1/DTD/svg11.dtd">
<!-- Creator: CorelDRAW -->
<svg xmlns="http://www.w3.org/2000/svg" xml:space="preserve" width="100%" height="100%" version="1.1" style="shape-rendering:geometricPrecision; text-rendering:geometricPrecision; image-rendering:optimizeQuality; fill-rule:evenodd; clip-rule:evenodd"
viewBox="0 0 12837.87 12035.52"
 xmlns:xlink="http://www.w3.org/1999/xlink"
 xmlns:xodm="http://www.corel.com/coreldraw/odm/2003">
 <defs>
  <style type="text/css">
   <![CDATA[
    .str0 {stroke:black;stroke-width:141.11;stroke-miterlimit:22.9256}
    .fil1 {fill:none}
    .fil0 {fill:black;fill-rule:nonzero}
   ]]>
  </style>
 </defs>
 <g id="圖層_x0020_1">
  <metadata id="CorelCorpID_0Corel-Layer"/>
  <g id="_1787197454960">
   <g>
    <g>
     <path class="fil0" d="M3209.5 1604.78l-2407.1 0c-443.52,0 -802.4,359.65 -802.4,802.35l0 8826.12c0,443.44 358.88,802.27 802.4,802.27l2407.13 0c443.49,0 802.32,-358.83 802.32,-802.27l0 -8826.12c-0.02,-442.7 -358.85,-802.35 -802.35,-802.35zm-2005.91 8023.66c-221.77,0 -401.19,-179.41 -401.19,-401.32 0,-221.64 179.41,-401.06 401.19,-401.06 221.72,0 401.13,179.41 401.13,401.06 0.01,221.91 -179.41,401.32 -401.13,401.32zm2005.91 -4814.21l-2407.1 0 0 -802.32 2407.13 -0.01 0 802.33 -0.03 0zm0 -1604.73l-2407.1 0 0 -802.38 2407.13 0.01 0 802.37 -0.03 0z"/>
     <path class="fil0" d="M8424.93 10430.74l0 -802.27 -2407.17 0 0 802.27c-443.41,0 -802.39,358.96 -802.39,802.51l4011.83 0c0,-443.55 -358.82,-802.51 -802.27,-802.51z"/>
     <path class="fil0" d="M12035.6 0l-9628.47 0c-443.49,0 -802.4,359.65 -802.4,802.4l802.4 0 2407.13 0 7221.36 0 0 6418.89 -7221.39 0 0 1604.78 7221.37 0c443.42,0 802.27,-358.83 802.27,-802.53l0 -7221.16c0,-442.76 -358.88,-802.38 -802.27,-802.38zm-4814.25 8424.88c-221.77,0 -401.19,-179.31 -401.19,-401.35 0,-221.64 179.41,-401.06 401.19,-401.06 221.8,0 401.21,179.41 401.21,401.06 0,222.04 -179.44,401.35 -401.21,401.35z"/>
    </g>
   </g>
   <g>
   </g>
   <g>
   </g>
   <g>
   </g>
   <g>
   </g>
   <g>
   </g>
   <g>
   </g>
   <g>
   </g>
   <g>
   </g>
   <g>
   </g>
   <g>
   </g>
   <g>
   </g>
   <g>
   </g>
   <g>
   </g>
   <g>
   </g>
   <g>
   </g>
  </g>
  <path class="fil1 str0" d="M5199 3487.08c0,-263.82 39.09,-455.58 121.55,-661.62 82.02,-204.94 208.31,-402.73 357.87,-552.29 74.79,-74.78 110.23,-111.05 191.87,-172.2 36.66,-27.47 68.78,-49.75 106.78,-75.25l114.34 -67.69c68.72,-41.82 175.23,-81.8 252.38,-111.7 23.55,-9.13 43.02,-13.38 67.53,-21.36 19.09,-6.22 54.43,-18.08 74.61,-18.53l0 3302.01c-143.65,-33.47 -264.86,-86.94 -390.94,-150.93 -19.94,-10.12 -37.33,-20.98 -56.46,-32.44 -325.18,-194.85 -574.37,-474.64 -716.77,-832.63 -65.12,-163.69 -122.76,-377.33 -122.76,-605.37zm1663.7 -2150.54l32.41 0c6.89,1.05 9.92,4.21 9.92,12.7l0 4216.41c0,22.79 -38.1,10.63 -51.41,9.09 -20.09,-2.32 -46.44,-0.2 -67.29,-0.46 -22.26,-0.27 -37.54,-3.22 -63.3,-4.43 -15.23,-0.72 -39.43,-4.23 -56.88,-6.62 -83.95,-11.5 -148.59,-19.87 -225.13,-37.34 -284.97,-65.03 -462.45,-148.35 -699.34,-295.49 -8.49,-5.27 -12.52,-7.04 -20.82,-13.05 -6.38,-4.6 -10.4,-7.85 -17.21,-12.42 -178.07,-119.51 -345.31,-280.38 -477.47,-449.64l-110.1 -156.59c-171.6,-261.84 -273.35,-557.97 -317.46,-872.11l-18.72 -241.8 0 -37.65c1.12,-31.97 4.4,-59.65 4.18,-95.58 -0.96,-151.42 55.77,-414.87 103.25,-557.15 56.27,-168.61 157.57,-390.16 261.51,-530.12 82.01,-110.42 103.07,-148.78 207.94,-257.74 36.11,-37.52 92.08,-100.12 134.32,-132.37 60.13,-45.93 97.89,-88.02 181.19,-144.78 169.1,-115.22 324.54,-205.2 523.09,-272.78 68.01,-23.15 131.77,-42.2 202.5,-59.96 131.95,-33.12 302.64,-60.12 464.82,-60.12z"/>
  <path class="fil1 str0" d="M7849.07 6166.78l0 -3302 140.94 41.09c205.78,81.47 296.79,122.77 475.92,256.44l148.31 126.86c16.52,16.57 29.96,30.09 46.58,46.56 17.12,16.96 27.48,31.08 44.52,48.61 9.77,10.07 11.82,15.01 21.12,25.45l99.71 128.88c12.66,18.65 22.94,34.63 35.52,53.38 167.73,249.93 283.61,628.3 271.91,922.56 -2.33,58.47 -0.76,118.17 -8.46,172.34 -18.97,133.46 -19.11,163.31 -59.27,304.8 -14.02,49.37 -29.04,93.81 -47.19,139.08 -9.04,22.55 -17.77,42.81 -26,62.89 -8.75,21.33 -18.3,43.5 -28.8,64.34 -21.88,43.39 -42,80.63 -65.16,121.11 -10.66,18.64 -22.58,36.17 -33.85,55.05 -52.48,87.88 -103.86,139.79 -158.22,210.08l-88.12 93.91c-10.28,9.51 -15.1,10.98 -25.54,21.03l-46.41 42.49c-10.43,9.29 -14.03,12.69 -25.01,21.56 -110.59,89.31 -208.41,156.03 -335.2,219.37 -97.21,48.56 -233.78,100 -337.3,124.12zm1701.8 -1710.54l0 110.87c-5.9,223.57 -47.2,445.82 -121.13,657.27 -39.47,112.9 -108.75,262.17 -168.07,361.1 -17.48,29.15 -31.9,53.31 -50.31,80.92 -79.02,118.5 -111.92,157.45 -199.37,262.07 -35.75,42.76 -124.21,127.74 -164.86,165.34 -50.13,46.36 -175.58,142.87 -220.8,172.9 -108.9,72.33 -213.16,132.12 -337.07,187.87 -178.1,80.13 -492.18,168.8 -685.73,173.64l-123 8.26 -2.24 0.2 -36.76 0c-6.84,-1.8 -11.56,-5.55 -11.56,-12.7l0 -4229.1c202.2,0 406.62,30.18 579.47,80.92 33.49,9.83 66.04,19.33 100.5,30.73 162.3,53.7 227.49,93.49 362.85,162.09 44.33,22.47 120.24,74.22 161.15,101.32 27.61,18.29 49.97,35.2 76.31,54.93l143.16 119.3c13.51,13.83 22.92,18.63 36.08,31.65 42.21,41.76 123.39,124.6 158.23,167.74 36.81,45.56 82.36,99.54 114.57,147.9 18.44,27.69 35.42,49.03 52.79,78.44 8.99,15.2 16.58,26.96 25.93,41.8 9.26,14.69 14.47,23.94 23.79,39.71 42.4,71.73 55.02,100.58 89.88,172.59 57.88,119.6 101.29,249.78 136.07,388.87 36.46,145.82 56.21,294.54 60.12,443.37z"/>
 </g>
</svg>
