<?xml version="1.0" ?><!DOCTYPE svg  PUBLIC '-//W3C//DTD SVG 1.1//EN'  'http://www.w3.org/Graphics/SVG/1.1/DTD/svg11.dtd'><svg xmlns="http://www.w3.org/2000/svg" xmlns:xlink="http://www.w3.org/1999/xlink" xmlns:serif="http://www.serif.com/" width="100%" height="100%" viewBox="0 0 64 64" version="1.1" xml:space="preserve" style="fill-rule:evenodd;clip-rule:evenodd;stroke-linejoin:round;stroke-miterlimit:2;"><g><g transform="matrix(0.916667,0,0,0.916667,9.66667,9.66667)"><path d="M37.666,12.626L36.09,7.373C35.813,6.45 34.964,5.818 34,5.818L30,5.818C29.036,5.818 28.187,6.45 27.91,7.373L26.334,12.626C24.923,13.039 23.575,13.602 22.309,14.296C22.31,14.296 17.478,11.694 17.478,11.694C16.63,11.237 15.582,11.391 14.901,12.072L12.072,14.901C11.391,15.582 11.237,16.63 11.694,17.478L14.296,22.31C13.601,23.575 13.039,24.923 12.626,26.335C12.626,26.334 7.373,27.91 7.373,27.91C6.45,28.187 5.818,29.036 5.818,30L5.818,34C5.818,34.964 6.45,35.813 7.373,36.09L12.626,37.666C13.039,39.077 13.602,40.425 14.296,41.691C14.296,41.69 11.694,46.522 11.694,46.522C11.237,47.37 11.391,48.418 12.072,49.099L14.901,51.928C15.582,52.609 16.63,52.763 17.478,52.306L22.31,49.704C23.575,50.399 24.923,50.961 26.335,51.374C26.334,51.374 27.91,56.627 27.91,56.627C28.187,57.55 29.036,58.182 30,58.182L34,58.182C34.964,58.182 35.813,57.55 36.09,56.627L37.666,51.374C39.077,50.961 40.425,50.398 41.691,49.704C41.69,49.704 46.522,52.306 46.522,52.306C47.37,52.763 48.418,52.609 49.099,51.928L51.928,49.099C52.609,48.418 52.763,47.37 52.306,46.522L49.704,41.69C50.399,40.425 50.961,39.077 51.374,37.665C51.374,37.666 56.627,36.09 56.627,36.09C57.55,35.813 58.182,34.964 58.182,34L58.182,30C58.182,29.036 57.55,28.187 56.627,27.91L51.374,26.334C50.961,24.923 50.398,23.575 49.704,22.309C49.704,22.31 52.306,17.478 52.306,17.478C52.763,16.63 52.609,15.582 51.928,14.901L49.099,12.072C48.418,11.391 47.37,11.237 46.522,11.694L41.69,14.296C40.425,13.601 39.077,13.039 37.666,12.626ZM33.839,15.058C34.066,15.814 34.684,16.389 35.454,16.56C37.262,16.963 38.953,17.677 40.47,18.641C41.136,19.065 41.98,19.096 42.675,18.721L47.161,16.306C47.161,16.306 47.694,16.839 47.694,16.839C47.694,16.839 45.279,21.325 45.279,21.325C44.904,22.02 44.935,22.863 45.359,23.53C46.323,25.046 47.036,26.738 47.44,28.546C47.611,29.316 48.186,29.934 48.942,30.161L53.818,31.623C53.818,31.623 53.818,32.377 53.818,32.377C53.818,32.377 48.942,33.839 48.942,33.839C48.186,34.066 47.611,34.684 47.44,35.454C47.037,37.262 46.323,38.953 45.359,40.47C44.935,41.136 44.904,41.98 45.279,42.675L47.694,47.161C47.694,47.161 47.161,47.694 47.161,47.694C47.161,47.694 42.675,45.279 42.675,45.279C41.98,44.904 41.137,44.935 40.47,45.359C38.954,46.323 37.262,47.036 35.454,47.44C34.684,47.611 34.066,48.186 33.839,48.942L32.377,53.818C32.377,53.818 31.623,53.818 31.623,53.818C31.623,53.818 30.161,48.942 30.161,48.942C29.934,48.186 29.316,47.611 28.546,47.44C26.738,47.037 25.047,46.323 23.53,45.359C22.864,44.935 22.02,44.904 21.325,45.279L16.839,47.694C16.839,47.694 16.306,47.161 16.306,47.161C16.306,47.161 18.721,42.675 18.721,42.675C19.096,41.98 19.065,41.137 18.641,40.47C17.677,38.954 16.964,37.262 16.56,35.454C16.389,34.684 15.814,34.066 15.058,33.839L10.182,32.377C10.182,32.377 10.182,31.623 10.182,31.623C10.182,31.623 15.058,30.161 15.058,30.161C15.814,29.934 16.389,29.316 16.56,28.546C16.963,26.738 17.677,25.047 18.641,23.53C19.065,22.864 19.096,22.02 18.721,21.325L16.306,16.839C16.306,16.839 16.839,16.306 16.839,16.306C16.839,16.306 21.325,18.721 21.325,18.721C22.02,19.096 22.863,19.065 23.53,18.641C25.046,17.677 26.738,16.964 28.546,16.56C29.316,16.389 29.934,15.814 30.161,15.058L31.623,10.182C31.623,10.182 32.377,10.182 32.377,10.182C32.377,10.182 33.839,15.058 33.839,15.058Z"/></g><g transform="matrix(0.916667,0,0,0.916667,-4.33333,-4.33333)"><path d="M16.841,47.696L16.306,47.161C16.306,47.161 18.721,42.675 18.721,42.675C19.096,41.98 19.065,41.137 18.641,40.47C17.677,38.954 16.964,37.262 16.56,35.454C16.389,34.684 15.814,34.066 15.058,33.839L10.182,32.377C10.182,32.377 10.182,31.623 10.182,31.623C10.182,31.623 15.058,30.161 15.058,30.161C15.814,29.934 16.389,29.316 16.56,28.546C16.963,26.738 17.677,25.047 18.641,23.53C19.065,22.864 19.096,22.02 18.721,21.325L16.306,16.839C16.306,16.839 16.839,16.306 16.839,16.306C16.839,16.306 21.325,18.721 21.325,18.721C22.02,19.096 22.863,19.065 23.53,18.641C25.046,17.677 26.738,16.964 28.546,16.56C29.316,16.389 29.934,15.814 30.161,15.058L31.623,10.182C31.623,10.182 32.377,10.182 32.377,10.182C32.377,10.182 33.839,15.058 33.839,15.058C34.066,15.814 34.684,16.389 35.454,16.56C37.262,16.963 38.953,17.677 40.47,18.641C41.136,19.065 41.98,19.096 42.675,18.721L47.161,16.306L47.694,16.839C47.127,17.898 47.525,19.219 48.583,19.789C49.644,20.36 50.968,19.963 51.539,18.902L52.306,17.478C52.763,16.63 52.609,15.582 51.928,14.901L49.099,12.072C48.418,11.391 47.37,11.237 46.522,11.694L41.69,14.296C40.425,13.601 39.077,13.039 37.665,12.626C37.666,12.626 36.09,7.373 36.09,7.373C35.813,6.45 34.964,5.818 34,5.818L30,5.818C29.036,5.818 28.187,6.45 27.91,7.373L26.334,12.626C24.923,13.039 23.575,13.602 22.309,14.296C22.31,14.296 17.478,11.694 17.478,11.694C16.63,11.237 15.582,11.391 14.901,12.072L12.072,14.901C11.391,15.582 11.237,16.63 11.694,17.478L14.296,22.31C13.601,23.575 13.039,24.923 12.626,26.335C12.626,26.334 7.373,27.91 7.373,27.91C6.45,28.187 5.818,29.036 5.818,30L5.818,34C5.818,34.964 6.45,35.813 7.373,36.09L12.626,37.666C13.039,39.077 13.602,40.425 14.296,41.691C14.296,41.69 11.694,46.522 11.694,46.522C11.237,47.37 11.391,48.418 12.072,49.099L14.901,51.928C15.582,52.609 16.63,52.763 17.478,52.306L18.81,51.589C19.87,51.018 20.268,49.693 19.697,48.633C19.144,47.606 17.883,47.201 16.841,47.696Z"/></g><g transform="matrix(2.03751,0,0,2,-38.2754,-42)"><path d="M37.926,36C35.218,36 33.018,38.24 33.018,41C33.018,43.76 35.218,46 37.926,46C40.635,46 42.834,43.76 42.834,41C42.834,38.24 40.635,36 37.926,36ZM37.926,38C39.552,38 40.871,39.344 40.871,41C40.871,42.656 39.552,44 37.926,44C36.301,44 34.982,42.656 34.982,41C34.982,39.344 36.301,38 37.926,38Z"/></g><g transform="matrix(2.03751,0,0,2,-52.2754,-57)"><path d="M35.685,42.945C35.247,42.421 34.982,41.742 34.982,41C34.982,39.344 36.301,38 37.926,38C38.615,38 39.248,38.241 39.749,38.645C40.174,38.987 40.792,38.913 41.128,38.48C41.464,38.047 41.392,37.418 40.967,37.076C40.13,36.402 39.074,36 37.926,36C35.218,36 33.018,38.24 33.018,41C33.018,42.237 33.46,43.37 34.192,44.243C34.544,44.663 35.164,44.713 35.576,44.355C35.988,43.997 36.037,43.365 35.685,42.945Z"/></g></g></svg>